# xmcd
#
# Track frame offsets: 
#        151
#        17248
#        36425
#        57908
#        78233
#        97278
#        119251
#        141404
#        158923
#        174768
#        199225
#        216210
#        229851
#        249038
#        267225
#        290174
#        305135
#
# Disc length: 4435 seconds
#
# Revision: 0
# Processed by: cddbd v1.5.2PL0 Copyright (c) Steve Scherf et al.
# Submitted via: ExactAudioCopy v0.95b4
#
DISCID=fc115111
DTITLE=Various Artist - Frente a Frente
DYEAR=2001
DGENRE=Latin
TTITLE0=Isabel Pantoja - Era mi vida el
TTITLE1=Ana Gabriel - Cosas del amor
TTITLE2=Isabel Pantoja - Hoy quiero confesarme
TTITLE3=Ana Gabriel - Luna
TTITLE4=Isabel Pantoja - Que se busquen a otra
TTITLE5=Ana Gabriel - No te hago falta
TTITLE6=Isabel Pantoja - Que voy a hacer contigo
TTITLE7=Ana Gabriel - Yo no te dije adios
TTITLE8=Ana Gabriel - Quien como tu
TTITLE9=Isabel Pantoja - Asi fue
TTITLE10=Ana Gabriel - Simplemente amigos
TTITLE11=Isabel Pantoja - Marinero de luces
TTITLE12=Ana Gabriel - Evidencias
TTITLE13=Ana Gabriel - Tu y yo
TTITLE14=Isabel Pantoja - Se me enamore el alma
TTITLE15=Ana Gabriel - Ay amor
TTITLE16=Isabel Pantoja - Hazme tuya
EXTD=
EXTT0=
EXTT1=
EXTT2=
EXTT3=
EXTT4=
EXTT5=
EXTT6=
EXTT7=
EXTT8=
EXTT9=
EXTT10=
EXTT11=
EXTT12=
EXTT13=
EXTT14=
EXTT15=
EXTT16=
PLAYORDER=
